<svg width="39" height="72" viewBox="0 0 39 72" fill="none" xmlns="http://www.w3.org/2000/svg">
<path d="M32.5591 0.75H32.5588L6.44118 0.75L6.44089 0.75C4.92906 0.751762 3.48159 1.37571 2.41547 2.48179C1.34966 3.58756 0.751689 5.08491 0.75 6.64489V6.64516L0.75 65.3548L0.75 65.3551C0.751689 66.9151 1.34966 68.4124 2.41547 69.5182C3.48159 70.6243 4.92906 71.2482 6.44088 71.25H6.44118H32.5588H32.5591C34.0709 71.2482 35.5184 70.6243 36.5845 69.5182C37.6503 68.4124 38.2483 66.9151 38.25 65.3551V65.3548V6.64516V6.64489C38.2483 5.08491 37.6503 3.58756 36.5845 2.48179C35.5184 1.37571 34.0709 0.751762 32.5591 0.75ZM5.49168 66.3267L5.67168 66.1532L5.49168 66.3267C5.74188 66.5863 6.08322 66.7339 6.44118 66.7339H12.9706C13.3285 66.7339 13.6699 66.5863 13.9201 66.3267C14.17 66.0674 14.3088 65.7177 14.3088 65.3548C14.3088 64.992 14.17 64.6423 13.9201 64.383C13.6699 64.1234 13.3285 63.9758 12.9706 63.9758H6.44118C6.08322 63.9758 5.74188 64.1234 5.49168 64.383C5.24178 64.6423 5.10294 64.992 5.10294 65.3548C5.10294 65.7177 5.24178 66.0674 5.49168 66.3267ZM12.981 6.39516L12.4244 3.50806H26.5757L26.0192 6.39516H12.981ZM35.5735 65.3546C35.5726 66.1893 35.2525 66.9877 34.6863 67.5753C34.1203 68.1625 33.3549 68.491 32.5585 68.4919H6.44147C5.64514 68.491 4.87975 68.1625 4.31375 67.5753C3.74751 66.9878 3.42743 66.1895 3.42647 65.3548C3.42647 65.3548 3.42647 65.3546 3.42647 65.3546V6.64543C3.42647 6.64536 3.42647 6.64529 3.42647 6.64522C3.42743 5.8106 3.74751 5.0122 4.31375 4.42473C4.8797 3.83757 5.64502 3.50905 6.44127 3.50806C6.44134 3.50806 6.4414 3.50806 6.44147 3.50806L9.69549 3.50806L10.5697 8.04295L10.8152 7.99563L10.5697 8.04295C10.6296 8.35346 10.7916 8.63467 11.0304 8.83778C11.2695 9.04106 11.5705 9.15324 11.8824 9.15322H27.1176C27.4296 9.15324 27.7306 9.04106 27.9696 8.83778C28.2084 8.63467 28.3704 8.35346 28.4303 8.04295L29.3045 3.50806L32.5585 3.50806C32.5586 3.50806 32.5587 3.50806 32.5587 3.50806C33.355 3.50905 34.1203 3.83757 34.6863 4.42473C35.2525 5.01225 35.5726 5.81073 35.5735 6.64543V65.3546ZM17.3235 63.9758H16.2353C15.8773 63.9758 15.536 64.1234 15.2858 64.383C15.0359 64.6423 14.8971 64.992 14.8971 65.3548C14.8971 65.7177 15.0359 66.0674 15.2858 66.3267C15.536 66.5863 15.8773 66.7339 16.2353 66.7339H17.3235C17.6815 66.7339 18.0228 66.5863 18.273 66.3267C18.5229 66.0674 18.6618 65.7177 18.6618 65.3548C18.6618 64.992 18.5229 64.6423 18.273 64.383C18.0228 64.1234 17.6815 63.9758 17.3235 63.9758Z" fill="#F5801C" stroke="#F5801C" stroke-width="0.5"/>
</svg>
