<svg width="63" height="65" viewBox="0 0 63 65" fill="none" xmlns="http://www.w3.org/2000/svg">
<mask id="path-1-outside-1_1_78" maskUnits="userSpaceOnUse" x="0" y="0" width="63" height="65" fill="black">
<rect fill="white" width="63" height="65"/>
<path d="M40.6986 21.0355C34.4128 11.9902 26.0176 7.1828 21.6211 10.1284C21.137 10.4619 20.7164 10.8757 20.3782 11.3511C20.3782 11.3858 10.2002 31.5326 10.2002 31.5326L4.51817 35.298C3.64589 35.8772 2.89882 36.6188 2.31964 37.4804C1.74045 38.3421 1.3405 39.3069 1.14263 40.3198C0.944757 41.3326 0.952843 42.3737 1.16642 43.3835C1.38001 44.3934 1.7949 45.3521 2.3874 46.2051L2.64309 46.5733C3.84073 48.2797 5.67789 49.4555 7.75608 49.8457C9.83428 50.2358 11.9859 49.8089 13.7444 48.6574L22.8712 61.8084C24.2136 63.4271 26.7918 65.0389 29.9737 63.1423C30.5374 62.7848 31.0183 62.3157 31.3853 61.7652C31.7523 61.2148 31.9973 60.5953 32.1045 59.9466C32.2331 59.3013 32.2296 58.6376 32.0943 57.9936C31.9589 57.3497 31.6945 56.7384 31.3161 56.1951L23.276 44.5933C23.276 44.5933 42.2825 43.1136 42.3535 43.0858C42.9469 42.9643 43.5096 42.7281 44.0084 42.3911C46.267 40.8905 47.0767 37.7434 46.2954 33.5265C45.5923 29.643 43.5965 25.2454 40.6986 21.0355ZM4.70994 45.2047L4.45425 44.8365C4.04545 44.2478 3.75936 43.5861 3.61236 42.8891C3.46535 42.1922 3.46032 41.4737 3.59754 40.7749C3.73476 40.076 4.01155 39.4105 4.41205 38.8164C4.81256 38.2223 5.32892 37.7113 5.93158 37.3127L10.8394 34.0475L17.317 43.3776L12.4091 46.6427C11.8072 47.0431 11.1304 47.3235 10.4176 47.4679C9.70479 47.6123 8.96986 47.6179 8.25484 47.4844C7.53981 47.3508 6.8587 47.0807 6.25045 46.6896C5.64219 46.2984 5.11871 45.7938 4.70994 45.2047ZM29.2706 57.5637C29.6588 58.1287 29.802 58.8212 29.6689 59.4893C29.5357 60.1574 29.137 60.7466 28.5603 61.1276C27.9816 61.5076 27.2725 61.6479 26.5883 61.5177C25.9041 61.3875 25.3005 60.9974 24.9096 60.4329L15.8112 47.3236L19.4691 44.892L20.435 44.8156L29.2706 57.5637ZM19.6679 42.4328L12.608 32.2621L19.3412 18.8332C19.9946 22.6055 21.9052 27.0864 24.9593 31.484C28.0134 35.8816 31.5647 39.2718 34.9029 41.2587L19.6679 42.4328ZM40.6205 40.8141C37.2255 40.5987 31.6997 36.8542 27.0191 30.1085C22.3385 23.3628 20.8185 16.9783 21.8626 13.8035C22.0512 13.2075 22.4274 12.6851 22.9376 12.3108C23.4479 11.9365 24.066 11.7295 24.7036 11.7193C28.0703 11.7193 33.802 15.4847 38.6176 22.4249C41.3307 26.3292 43.3053 30.4141 43.845 33.985C44.9033 40.8141 40.6205 40.8141 40.6205 40.8141Z"/>
<path d="M31.8204 21.2925C30.9504 21.1254 30.0551 21.1296 29.1868 21.305C28.3184 21.4803 27.4946 21.8233 26.7634 22.3137C26.6286 22.405 26.5135 22.5213 26.4247 22.656C26.3359 22.7907 26.275 22.9413 26.2457 23.099C26.2164 23.2567 26.219 23.4186 26.2536 23.5753C26.2882 23.732 26.3541 23.8805 26.4473 24.0123C26.5406 24.1442 26.6595 24.2567 26.7973 24.3436C26.935 24.4305 27.0889 24.49 27.2502 24.5187C27.4114 24.5474 27.5769 24.5448 27.7371 24.5109C27.8973 24.4771 28.0491 24.4127 28.1839 24.3215C28.647 24.014 29.1675 23.7988 29.7156 23.6881C30.2637 23.5774 30.8288 23.5734 31.3785 23.6763C31.9282 23.7792 32.4519 23.987 32.9195 24.2878C33.3871 24.5886 33.7896 24.9766 34.1039 25.4295C34.4182 25.8825 34.6382 26.3916 34.7514 26.9277C34.8646 27.4639 34.8687 28.0166 34.7635 28.5543C34.6583 29.092 34.4459 29.6041 34.1383 30.0615C33.8308 30.5189 33.4341 30.9126 32.971 31.22C32.7527 31.3675 32.5883 31.5795 32.502 31.8249C32.4157 32.0704 32.4119 32.3364 32.4913 32.5841C32.5707 32.8318 32.729 33.0481 32.9431 33.2014C33.1572 33.3547 33.4159 33.437 33.6813 33.4362C33.9345 33.4408 34.1828 33.3679 34.3915 33.2278C35.4963 32.4958 36.354 31.4595 36.8561 30.2503C37.3583 29.0411 37.4822 27.7134 37.2122 26.4352C36.9421 25.1571 36.2904 23.9861 35.3394 23.0706C34.3884 22.1551 33.181 21.5363 31.8701 21.2925H31.8204Z"/>
<path d="M42.2328 12.5808H42.3535C42.6609 12.5806 42.9574 12.4691 43.1857 12.2676C43.4139 12.0662 43.5577 11.7892 43.5894 11.49L44.5482 2.37536C44.57 2.21418 44.5586 2.05037 44.5145 1.8936C44.4705 1.73683 44.3947 1.5903 44.2918 1.46267C44.1888 1.33504 44.0607 1.2289 43.9151 1.15054C43.7695 1.07218 43.6092 1.02318 43.4439 1.00645C43.2786 0.989724 43.1115 1.0056 42.9525 1.05314C42.7936 1.10068 42.646 1.17893 42.5185 1.28324C42.391 1.38755 42.2862 1.51582 42.2103 1.66045C42.1344 1.80508 42.0889 1.96313 42.0765 2.12526L41.1248 11.2469C41.091 11.5675 41.1887 11.888 41.3965 12.1381C41.6043 12.3883 41.9051 12.5475 42.2328 12.5808Z"/>
<path d="M58.2988 10.705C58.1163 10.4359 57.8324 10.2484 57.509 10.1833C57.1857 10.1182 56.8491 10.1809 56.5728 10.3577L47.9148 15.9154C47.69 16.0606 47.5195 16.2733 47.429 16.5215C47.3385 16.7697 47.3329 17.0399 47.413 17.2915C47.4931 17.5431 47.6547 17.7624 47.8733 17.9164C48.0919 18.0704 48.3557 18.1508 48.6251 18.1454C48.8763 18.1511 49.1236 18.0834 49.3353 17.9509L57.9934 12.3932C58.2619 12.2083 58.4448 11.927 58.5021 11.6107C58.5593 11.2944 58.4862 10.9688 58.2988 10.705Z"/>
<path d="M60.948 25.5442L50.8766 23.7726C50.5516 23.7155 50.2168 23.787 49.9458 23.9714C49.6747 24.1557 49.4896 24.4378 49.4312 24.7557C49.3728 25.0735 49.4459 25.401 49.6344 25.6661C49.8228 25.9313 50.1113 26.1123 50.4362 26.1694L60.5006 27.941H60.7207C61.0374 27.95 61.3457 27.8404 61.5826 27.6346C61.8194 27.4288 61.967 27.1423 61.9951 26.8336C62.0232 26.5249 61.9297 26.2174 61.7338 25.9739C61.5379 25.7303 61.2543 25.5692 60.9409 25.5233L60.948 25.5442Z"/>
</mask>
<path d="M40.6986 21.0355C34.4128 11.9902 26.0176 7.1828 21.6211 10.1284C21.137 10.4619 20.7164 10.8757 20.3782 11.3511C20.3782 11.3858 10.2002 31.5326 10.2002 31.5326L4.51817 35.298C3.64589 35.8772 2.89882 36.6188 2.31964 37.4804C1.74045 38.3421 1.3405 39.3069 1.14263 40.3198C0.944757 41.3326 0.952843 42.3737 1.16642 43.3835C1.38001 44.3934 1.7949 45.3521 2.3874 46.2051L2.64309 46.5733C3.84073 48.2797 5.67789 49.4555 7.75608 49.8457C9.83428 50.2358 11.9859 49.8089 13.7444 48.6574L22.8712 61.8084C24.2136 63.4271 26.7918 65.0389 29.9737 63.1423C30.5374 62.7848 31.0183 62.3157 31.3853 61.7652C31.7523 61.2148 31.9973 60.5953 32.1045 59.9466C32.2331 59.3013 32.2296 58.6376 32.0943 57.9936C31.9589 57.3497 31.6945 56.7384 31.3161 56.1951L23.276 44.5933C23.276 44.5933 42.2825 43.1136 42.3535 43.0858C42.9469 42.9643 43.5096 42.7281 44.0084 42.3911C46.267 40.8905 47.0767 37.7434 46.2954 33.5265C45.5923 29.643 43.5965 25.2454 40.6986 21.0355ZM4.70994 45.2047L4.45425 44.8365C4.04545 44.2478 3.75936 43.5861 3.61236 42.8891C3.46535 42.1922 3.46032 41.4737 3.59754 40.7749C3.73476 40.076 4.01155 39.4105 4.41205 38.8164C4.81256 38.2223 5.32892 37.7113 5.93158 37.3127L10.8394 34.0475L17.317 43.3776L12.4091 46.6427C11.8072 47.0431 11.1304 47.3235 10.4176 47.4679C9.70479 47.6123 8.96986 47.6179 8.25484 47.4844C7.53981 47.3508 6.8587 47.0807 6.25045 46.6896C5.64219 46.2984 5.11871 45.7938 4.70994 45.2047ZM29.2706 57.5637C29.6588 58.1287 29.802 58.8212 29.6689 59.4893C29.5357 60.1574 29.137 60.7466 28.5603 61.1276C27.9816 61.5076 27.2725 61.6479 26.5883 61.5177C25.9041 61.3875 25.3005 60.9974 24.9096 60.4329L15.8112 47.3236L19.4691 44.892L20.435 44.8156L29.2706 57.5637ZM19.6679 42.4328L12.608 32.2621L19.3412 18.8332C19.9946 22.6055 21.9052 27.0864 24.9593 31.484C28.0134 35.8816 31.5647 39.2718 34.9029 41.2587L19.6679 42.4328ZM40.6205 40.8141C37.2255 40.5987 31.6997 36.8542 27.0191 30.1085C22.3385 23.3628 20.8185 16.9783 21.8626 13.8035C22.0512 13.2075 22.4274 12.6851 22.9376 12.3108C23.4479 11.9365 24.066 11.7295 24.7036 11.7193C28.0703 11.7193 33.802 15.4847 38.6176 22.4249C41.3307 26.3292 43.3053 30.4141 43.845 33.985C44.9033 40.8141 40.6205 40.8141 40.6205 40.8141Z" fill="#F5801C"/>
<path d="M31.8204 21.2925C30.9504 21.1254 30.0551 21.1296 29.1868 21.305C28.3184 21.4803 27.4946 21.8233 26.7634 22.3137C26.6286 22.405 26.5135 22.5213 26.4247 22.656C26.3359 22.7907 26.275 22.9413 26.2457 23.099C26.2164 23.2567 26.219 23.4186 26.2536 23.5753C26.2882 23.732 26.3541 23.8805 26.4473 24.0123C26.5406 24.1442 26.6595 24.2567 26.7973 24.3436C26.935 24.4305 27.0889 24.49 27.2502 24.5187C27.4114 24.5474 27.5769 24.5448 27.7371 24.5109C27.8973 24.4771 28.0491 24.4127 28.1839 24.3215C28.647 24.014 29.1675 23.7988 29.7156 23.6881C30.2637 23.5774 30.8288 23.5734 31.3785 23.6763C31.9282 23.7792 32.4519 23.987 32.9195 24.2878C33.3871 24.5886 33.7896 24.9766 34.1039 25.4295C34.4182 25.8825 34.6382 26.3916 34.7514 26.9277C34.8646 27.4639 34.8687 28.0166 34.7635 28.5543C34.6583 29.092 34.4459 29.6041 34.1383 30.0615C33.8308 30.5189 33.4341 30.9126 32.971 31.22C32.7527 31.3675 32.5883 31.5795 32.502 31.8249C32.4157 32.0704 32.4119 32.3364 32.4913 32.5841C32.5707 32.8318 32.729 33.0481 32.9431 33.2014C33.1572 33.3547 33.4159 33.437 33.6813 33.4362C33.9345 33.4408 34.1828 33.3679 34.3915 33.2278C35.4963 32.4958 36.354 31.4595 36.8561 30.2503C37.3583 29.0411 37.4822 27.7134 37.2122 26.4352C36.9421 25.1571 36.2904 23.9861 35.3394 23.0706C34.3884 22.1551 33.181 21.5363 31.8701 21.2925H31.8204Z" fill="#F5801C"/>
<path d="M42.2328 12.5808H42.3535C42.6609 12.5806 42.9574 12.4691 43.1857 12.2676C43.4139 12.0662 43.5577 11.7892 43.5894 11.49L44.5482 2.37536C44.57 2.21418 44.5586 2.05037 44.5145 1.8936C44.4705 1.73683 44.3947 1.5903 44.2918 1.46267C44.1888 1.33504 44.0607 1.2289 43.9151 1.15054C43.7695 1.07218 43.6092 1.02318 43.4439 1.00645C43.2786 0.989724 43.1115 1.0056 42.9525 1.05314C42.7936 1.10068 42.646 1.17893 42.5185 1.28324C42.391 1.38755 42.2862 1.51582 42.2103 1.66045C42.1344 1.80508 42.0889 1.96313 42.0765 2.12526L41.1248 11.2469C41.091 11.5675 41.1887 11.888 41.3965 12.1381C41.6043 12.3883 41.9051 12.5475 42.2328 12.5808Z" fill="#F5801C"/>
<path d="M58.2988 10.705C58.1163 10.4359 57.8324 10.2484 57.509 10.1833C57.1857 10.1182 56.8491 10.1809 56.5728 10.3577L47.9148 15.9154C47.69 16.0606 47.5195 16.2733 47.429 16.5215C47.3385 16.7697 47.3329 17.0399 47.413 17.2915C47.4931 17.5431 47.6547 17.7624 47.8733 17.9164C48.0919 18.0704 48.3557 18.1508 48.6251 18.1454C48.8763 18.1511 49.1236 18.0834 49.3353 17.9509L57.9934 12.3932C58.2619 12.2083 58.4448 11.927 58.5021 11.6107C58.5593 11.2944 58.4862 10.9688 58.2988 10.705Z" fill="#F5801C"/>
<path d="M60.948 25.5442L50.8766 23.7726C50.5516 23.7155 50.2168 23.787 49.9458 23.9714C49.6747 24.1557 49.4896 24.4378 49.4312 24.7557C49.3728 25.0735 49.4459 25.401 49.6344 25.6661C49.8228 25.9313 50.1113 26.1123 50.4362 26.1694L60.5006 27.941H60.7207C61.0374 27.95 61.3457 27.8404 61.5826 27.6346C61.8194 27.4288 61.967 27.1423 61.9951 26.8336C62.0232 26.5249 61.9297 26.2174 61.7338 25.9739C61.5379 25.7303 61.2543 25.5692 60.9409 25.5233L60.948 25.5442Z" fill="#F5801C"/>
<path d="M40.6986 21.0355C34.4128 11.9902 26.0176 7.1828 21.6211 10.1284C21.137 10.4619 20.7164 10.8757 20.3782 11.3511C20.3782 11.3858 10.2002 31.5326 10.2002 31.5326L4.51817 35.298C3.64589 35.8772 2.89882 36.6188 2.31964 37.4804C1.74045 38.3421 1.3405 39.3069 1.14263 40.3198C0.944757 41.3326 0.952843 42.3737 1.16642 43.3835C1.38001 44.3934 1.7949 45.3521 2.3874 46.2051L2.64309 46.5733C3.84073 48.2797 5.67789 49.4555 7.75608 49.8457C9.83428 50.2358 11.9859 49.8089 13.7444 48.6574L22.8712 61.8084C24.2136 63.4271 26.7918 65.0389 29.9737 63.1423C30.5374 62.7848 31.0183 62.3157 31.3853 61.7652C31.7523 61.2148 31.9973 60.5953 32.1045 59.9466C32.2331 59.3013 32.2296 58.6376 32.0943 57.9936C31.9589 57.3497 31.6945 56.7384 31.3161 56.1951L23.276 44.5933C23.276 44.5933 42.2825 43.1136 42.3535 43.0858C42.9469 42.9643 43.5096 42.7281 44.0084 42.3911C46.267 40.8905 47.0767 37.7434 46.2954 33.5265C45.5923 29.643 43.5965 25.2454 40.6986 21.0355ZM4.70994 45.2047L4.45425 44.8365C4.04545 44.2478 3.75936 43.5861 3.61236 42.8891C3.46535 42.1922 3.46032 41.4737 3.59754 40.7749C3.73476 40.076 4.01155 39.4105 4.41205 38.8164C4.81256 38.2223 5.32892 37.7113 5.93158 37.3127L10.8394 34.0475L17.317 43.3776L12.4091 46.6427C11.8072 47.0431 11.1304 47.3235 10.4176 47.4679C9.70479 47.6123 8.96986 47.6179 8.25484 47.4844C7.53981 47.3508 6.8587 47.0807 6.25045 46.6896C5.64219 46.2984 5.11871 45.7938 4.70994 45.2047ZM29.2706 57.5637C29.6588 58.1287 29.802 58.8212 29.6689 59.4893C29.5357 60.1574 29.137 60.7466 28.5603 61.1276C27.9816 61.5076 27.2725 61.6479 26.5883 61.5177C25.9041 61.3875 25.3005 60.9974 24.9096 60.4329L15.8112 47.3236L19.4691 44.892L20.435 44.8156L29.2706 57.5637ZM19.6679 42.4328L12.608 32.2621L19.3412 18.8332C19.9946 22.6055 21.9052 27.0864 24.9593 31.484C28.0134 35.8816 31.5647 39.2718 34.9029 41.2587L19.6679 42.4328ZM40.6205 40.8141C37.2255 40.5987 31.6997 36.8542 27.0191 30.1085C22.3385 23.3628 20.8185 16.9783 21.8626 13.8035C22.0512 13.2075 22.4274 12.6851 22.9376 12.3108C23.4479 11.9365 24.066 11.7295 24.7036 11.7193C28.0703 11.7193 33.802 15.4847 38.6176 22.4249C41.3307 26.3292 43.3053 30.4141 43.845 33.985C44.9033 40.8141 40.6205 40.8141 40.6205 40.8141Z" stroke="#F5801C" mask="url(#path-1-outside-1_1_78)"/>
<path d="M31.8204 21.2925C30.9504 21.1254 30.0551 21.1296 29.1868 21.305C28.3184 21.4803 27.4946 21.8233 26.7634 22.3137C26.6286 22.405 26.5135 22.5213 26.4247 22.656C26.3359 22.7907 26.275 22.9413 26.2457 23.099C26.2164 23.2567 26.219 23.4186 26.2536 23.5753C26.2882 23.732 26.3541 23.8805 26.4473 24.0123C26.5406 24.1442 26.6595 24.2567 26.7973 24.3436C26.935 24.4305 27.0889 24.49 27.2502 24.5187C27.4114 24.5474 27.5769 24.5448 27.7371 24.5109C27.8973 24.4771 28.0491 24.4127 28.1839 24.3215C28.647 24.014 29.1675 23.7988 29.7156 23.6881C30.2637 23.5774 30.8288 23.5734 31.3785 23.6763C31.9282 23.7792 32.4519 23.987 32.9195 24.2878C33.3871 24.5886 33.7896 24.9766 34.1039 25.4295C34.4182 25.8825 34.6382 26.3916 34.7514 26.9277C34.8646 27.4639 34.8687 28.0166 34.7635 28.5543C34.6583 29.092 34.4459 29.6041 34.1383 30.0615C33.8308 30.5189 33.4341 30.9126 32.971 31.22C32.7527 31.3675 32.5883 31.5795 32.502 31.8249C32.4157 32.0704 32.4119 32.3364 32.4913 32.5841C32.5707 32.8318 32.729 33.0481 32.9431 33.2014C33.1572 33.3547 33.4159 33.437 33.6813 33.4362C33.9345 33.4408 34.1828 33.3679 34.3915 33.2278C35.4963 32.4958 36.354 31.4595 36.8561 30.2503C37.3583 29.0411 37.4822 27.7134 37.2122 26.4352C36.9421 25.1571 36.2904 23.9861 35.3394 23.0706C34.3884 22.1551 33.181 21.5363 31.8701 21.2925H31.8204Z" stroke="#F5801C" mask="url(#path-1-outside-1_1_78)"/>
<path d="M42.2328 12.5808H42.3535C42.6609 12.5806 42.9574 12.4691 43.1857 12.2676C43.4139 12.0662 43.5577 11.7892 43.5894 11.49L44.5482 2.37536C44.57 2.21418 44.5586 2.05037 44.5145 1.8936C44.4705 1.73683 44.3947 1.5903 44.2918 1.46267C44.1888 1.33504 44.0607 1.2289 43.9151 1.15054C43.7695 1.07218 43.6092 1.02318 43.4439 1.00645C43.2786 0.989724 43.1115 1.0056 42.9525 1.05314C42.7936 1.10068 42.646 1.17893 42.5185 1.28324C42.391 1.38755 42.2862 1.51582 42.2103 1.66045C42.1344 1.80508 42.0889 1.96313 42.0765 2.12526L41.1248 11.2469C41.091 11.5675 41.1887 11.888 41.3965 12.1381C41.6043 12.3883 41.9051 12.5475 42.2328 12.5808Z" stroke="#F5801C" mask="url(#path-1-outside-1_1_78)"/>
<path d="M58.2988 10.705C58.1163 10.4359 57.8324 10.2484 57.509 10.1833C57.1857 10.1182 56.8491 10.1809 56.5728 10.3577L47.9148 15.9154C47.69 16.0606 47.5195 16.2733 47.429 16.5215C47.3385 16.7697 47.3329 17.0399 47.413 17.2915C47.4931 17.5431 47.6547 17.7624 47.8733 17.9164C48.0919 18.0704 48.3557 18.1508 48.6251 18.1454C48.8763 18.1511 49.1236 18.0834 49.3353 17.9509L57.9934 12.3932C58.2619 12.2083 58.4448 11.927 58.5021 11.6107C58.5593 11.2944 58.4862 10.9688 58.2988 10.705Z" stroke="#F5801C" mask="url(#path-1-outside-1_1_78)"/>
<path d="M60.948 25.5442L50.8766 23.7726C50.5516 23.7155 50.2168 23.787 49.9458 23.9714C49.6747 24.1557 49.4896 24.4378 49.4312 24.7557C49.3728 25.0735 49.4459 25.401 49.6344 25.6661C49.8228 25.9313 50.1113 26.1123 50.4362 26.1694L60.5006 27.941H60.7207C61.0374 27.95 61.3457 27.8404 61.5826 27.6346C61.8194 27.4288 61.967 27.1423 61.9951 26.8336C62.0232 26.5249 61.9297 26.2174 61.7338 25.9739C61.5379 25.7303 61.2543 25.5692 60.9409 25.5233L60.948 25.5442Z" stroke="#F5801C" mask="url(#path-1-outside-1_1_78)"/>
</svg>
