<svg width="58" height="58" viewBox="0 0 58 58" fill="none" xmlns="http://www.w3.org/2000/svg">
<path d="M28.9431 0C12.9841 0 0 13.0092 0 29C0 44.9908 12.9841 58 28.9431 58C36.0565 58 38.5176 54.629 39.3516 52.62C40.5908 49.6336 39.8163 45.9112 37.4677 43.5673C35.8499 41.9526 35.8499 39.3267 37.4677 37.712C39.0834 36.0995 41.7928 36.0938 43.4138 37.712C45.8142 40.1073 49.589 40.9127 52.5946 39.6701C58.6639 37.1607 57.9394 28.6734 57.9997 28.4902L57.9993 28.4588C57.7115 12.8247 44.8396 0 28.9431 0ZM51.292 36.5305C49.3416 37.3368 47.0179 36.5027 45.8217 35.3092C42.8724 32.3652 38.0091 32.3657 35.0603 35.3092C32.1114 38.2519 32.1114 43.0274 35.0603 45.9705C36.2427 47.1507 37.0164 49.3672 36.2059 51.3195C35.3272 53.436 32.7481 54.6016 28.9431 54.6016C14.8613 54.6016 3.40507 43.1168 3.40507 29C3.40507 14.8832 14.8613 3.39844 28.9431 3.39844C42.8272 3.39844 54.3313 14.6602 54.5946 28.5062C54.5583 28.7279 54.9972 34.9986 51.292 36.5305Z" fill="#F5801C"/>
<path d="M40.9744 25.6016C40.9744 28.4124 43.2657 30.6992 46.082 30.6992C48.8982 30.6992 51.1896 28.4124 51.1896 25.6016C51.1896 22.7908 48.8982 20.5039 46.082 20.5039C43.2657 20.5039 40.9744 22.7908 40.9744 25.6016ZM47.7845 25.6016C47.7845 26.5383 47.0206 27.3008 46.082 27.3008C45.1433 27.3008 44.3794 26.5383 44.3794 25.6016C44.3794 24.6648 45.1433 23.9023 46.082 23.9023C47.0206 23.9023 47.7845 24.6648 47.7845 25.6016Z" fill="#F5801C"/>
<path d="M25.538 6.91016C22.7218 6.91016 20.4304 9.19702 20.4304 12.0078C20.4304 14.8186 22.7218 17.1055 25.538 17.1055C28.3543 17.1055 30.6456 14.8186 30.6456 12.0078C30.6456 9.19702 28.3543 6.91016 25.538 6.91016ZM25.538 13.707C24.5994 13.707 23.8355 12.9446 23.8355 12.0078C23.8355 11.071 24.5994 10.3086 25.538 10.3086C26.4766 10.3086 27.2406 11.071 27.2406 12.0078C27.2406 12.9446 26.4766 13.707 25.538 13.707Z" fill="#F5801C"/>
<path d="M15.3228 27.3008C18.1391 27.3008 20.4304 25.0139 20.4304 22.2031C20.4304 19.3923 18.1391 17.1055 15.3228 17.1055C12.5065 17.1055 10.2152 19.3923 10.2152 22.2031C10.2152 25.0139 12.5065 27.3008 15.3228 27.3008ZM15.3228 20.5039C16.2614 20.5039 17.0254 21.2663 17.0254 22.2031C17.0254 23.1399 16.2614 23.9023 15.3228 23.9023C14.3842 23.9023 13.6203 23.1399 13.6203 22.2031C13.6203 21.2663 14.3842 20.5039 15.3228 20.5039Z" fill="#F5801C"/>
<path d="M15.3228 30.6992C12.5065 30.6992 10.2152 32.9861 10.2152 35.7969C10.2152 38.6077 12.5065 40.8945 15.3228 40.8945C18.1391 40.8945 20.4304 38.6077 20.4304 35.7969C20.4304 32.9861 18.1391 30.6992 15.3228 30.6992ZM15.3228 37.4961C14.3842 37.4961 13.6203 36.7337 13.6203 35.7969C13.6203 34.8601 14.3842 34.0977 15.3228 34.0977C16.2614 34.0977 17.0254 34.8601 17.0254 35.7969C17.0254 36.7337 16.2614 37.4961 15.3228 37.4961Z" fill="#F5801C"/>
<path d="M25.538 40.8945C22.7218 40.8945 20.4304 43.1814 20.4304 45.9922C20.4304 48.803 22.7218 51.0898 25.538 51.0898C28.3543 51.0898 30.6456 48.803 30.6456 45.9922C30.6456 43.1814 28.3543 40.8945 25.538 40.8945ZM25.538 47.6914C24.5994 47.6914 23.8355 46.929 23.8355 45.9922C23.8355 45.0554 24.5994 44.293 25.538 44.293C26.4766 44.293 27.2406 45.0554 27.2406 45.9922C27.2406 46.929 26.4766 47.6914 25.538 47.6914Z" fill="#F5801C"/>
</svg>
